<?xml version="1.0" encoding="UTF-8"?>
<svg id="Layer_2" data-name="Layer 2" xmlns="http://www.w3.org/2000/svg" viewBox="0 0 107.98 54.18">
  <g id="Layer_1-2" data-name="Layer 1">
    <path d="M107.98,30.36v.81c-.01,12.71-24.18,23.01-53.99,23.01S0,43.88,0,31.17,23.11,8.62,52.01,8.18l-5.51-5.63c-.58-.59-.57-1.54.02-2.12.59-.58,1.54-.57,2.12.02l7.98,8.15c.59.58.6,1.53.02,2.12l-.02.02-7.98,8.15c-.29.29-.68.45-1.07.45s-.76-.15-1.05-.43c-.59-.58-.6-1.53-.02-2.12l5.49-5.61c-13.28.2-25.64,2.49-35,6.48-8.89,3.79-13.99,8.71-13.99,13.51s5.1,9.72,13.99,13.51c9.83,4.19,22.97,6.5,37,6.5s27.16-2.31,36.99-6.5c8.89-3.79,13.99-8.71,13.99-13.51v-.85c.02-.82.7-1.49,1.52-1.48.83.01,1.5.69,1.49,1.52Z"/>
  </g>
</svg>